<svg aria-hidden="true" width="24px" height="24px" viewBox="0 0 24 24" fill="none" xmlns="http://www.w3.org/2000/svg">
  <path d="M20 19V9.46465C20 9.17001 19.8701 8.89037 19.6449 8.70036L12.6449 2.79411C12.2724 2.47983 11.7276 2.47983 11.3551 2.79411L4.35513 8.70036C4.12994 8.89037 4 9.17001 4 9.46465V19C4 19.5523 4.44772 20 5 20H9C9.55228 20 10 19.5523 10 19V15C10 14.4477 10.4477 14 11 14H13C13.5523 14 14 14.4477 14 15V19C14 19.5523 14.4477 20 15 20H19C19.5523 20 20 19.5523 20 19Z" stroke="white" stroke-width="2" stroke-linejoin="round"/>
</svg>