<svg aria-hidden="true" width="24px" height="24px" viewBox="0 0 24 24" fill="none" xmlns="http://www.w3.org/2000/svg">
  <path d="M7 3V10M7 10H5C4.44772 10 4 10.4477 4 11V17C4 17.5523 4.44772 18 5 18H7M7 10H9C9.55228 10 10 10.4477 10 11V17C10 17.5523 9.55228 18 9 18H7M7 18V21M17 3V6M17 6H15C14.4477 6 14 6.44772 14 7V17C14 17.5523 14.4477 18 15 18H17M17 6H19C19.5523 6 20 6.44772 20 7V17C20 17.5523 19.5523 18 19 18H17M17 18V21" stroke="white" stroke-width="2" stroke-linecap="round" stroke-linejoin="round"/>
</svg>